<?xml version="1.0" encoding="UTF-8" standalone="no"?>
<!-- Created with Inkscape (http://www.inkscape.org/) -->

<svg
   xmlns:dc="http://purl.org/dc/elements/1.1/"
   xmlns:cc="http://creativecommons.org/ns#"
   xmlns:rdf="http://www.w3.org/1999/02/22-rdf-syntax-ns#"
   xmlns:svg="http://www.w3.org/2000/svg"
   xmlns="http://www.w3.org/2000/svg"
   xmlns:sodipodi="http://sodipodi.sourceforge.net/DTD/sodipodi-0.dtd"
   xmlns:inkscape="http://www.inkscape.org/namespaces/inkscape"
   width="68.52mm"
   height="8.0mm"
   viewBox="0 0 96.464318 11.26255"
   version="1.1"
   id="svg8"
   inkscape:version="0.92.3 (2405546, 2018-03-11)"
   sodipodi:docname="logo.svg">
  <defs
     id="defs2">
    <filter
       style="color-interpolation-filters:sRGB"
       inkscape:label="Invert"
       id="filter4670">
      <feColorMatrix
         type="hueRotate"
         values="180"
         result="color1"
         id="feColorMatrix4666" />
      <feColorMatrix
         values="-1 0 0 0 1 0 -1 0 0 1 0 0 -1 0 1 -0.21 -0.72 -0.07 2 0 "
         result="fbSourceGraphic"
         id="feColorMatrix4668" />
      <feColorMatrix
         result="fbSourceGraphicAlpha"
         in="fbSourceGraphic"
         values="0 0 0 -1 0 0 0 0 -1 0 0 0 0 -1 0 0 0 0 1 0"
         id="feColorMatrix4672" />
      <feColorMatrix
         id="feColorMatrix4674"
         type="hueRotate"
         values="180"
         result="color1"
         in="fbSourceGraphic" />
      <feColorMatrix
         id="feColorMatrix4676"
         values="-1 0 0 0 1 0 -1 0 0 1 0 0 -1 0 1 -0.21 -0.72 -0.07 2 0 "
         result="color2" />
    </filter>
  </defs>
  <sodipodi:namedview
     id="base"
     pagecolor="#ffffff"
     bordercolor="#666666"
     borderopacity="1.0"
     inkscape:pageopacity="0"
     inkscape:pageshadow="2"
     inkscape:zoom="4"
     inkscape:cx="106.4104"
     inkscape:cy="-11.753632"
     inkscape:document-units="mm"
     inkscape:current-layer="layer1"
     showgrid="false"
     inkscape:window-width="2736"
     inkscape:window-height="1699"
     inkscape:window-x="-13"
     inkscape:window-y="-13"
     inkscape:window-maximized="1"
     fit-margin-top="0"
     fit-margin-left="0"
     fit-margin-right="0"
     fit-margin-bottom="0" />
  <metadata
     id="metadata5">
    <rdf:RDF>
      <cc:Work
         rdf:about="">
        <dc:format>image/svg+xml</dc:format>
        <dc:type
           rdf:resource="http://purl.org/dc/dcmitype/StillImage" />
        <dc:title></dc:title>
      </cc:Work>
    </rdf:RDF>
  </metadata>
  <g
     inkscape:label="Layer 1"
     inkscape:groupmode="layer"
     id="layer1"
     transform="translate(-9.2015781,-1.1650396)">
    <path
       style="color:#000000;font-style:normal;font-variant:normal;font-weight:normal;font-stretch:normal;font-size:medium;line-height:normal;font-family:sans-serif;font-variant-ligatures:normal;font-variant-position:normal;font-variant-caps:normal;font-variant-numeric:normal;font-variant-alternates:normal;font-feature-settings:normal;text-indent:0;text-align:start;text-decoration:none;text-decoration-line:none;text-decoration-style:solid;text-decoration-color:#000000;letter-spacing:normal;word-spacing:normal;text-transform:none;writing-mode:lr-tb;direction:ltr;text-orientation:mixed;dominant-baseline:auto;baseline-shift:baseline;text-anchor:start;white-space:normal;shape-padding:0;clip-rule:nonzero;display:inline;overflow:visible;visibility:visible;opacity:1;isolation:auto;mix-blend-mode:normal;color-interpolation:sRGB;color-interpolation-filters:linearRGB;solid-color:#000000;solid-opacity:1;vector-effect:none;fill:#FFFFFF;fill-opacity:1;fill-rule:nonzero;stroke:none;stroke-width:2.09988856;stroke-linecap:butt;stroke-linejoin:miter;stroke-miterlimit:4;stroke-dasharray:none;stroke-dashoffset:0;stroke-opacity:1;color-rendering:auto;image-rendering:auto;shape-rendering:auto;text-rendering:auto;enable-background:accumulate"
       d="m 239.08789,20.337891 a 21.283831,21.283831 0 0 1 0.0332,0.945312 21.283831,21.283831 0 0 1 -0.0801,1.605469 c 2.469,-2.857425 4.39376,-5.856987 5.30078,-8.800781 1.51324,-4.9113479 0.0977,-8.5959115 -3.25586,-10.5917972 -3.02989,-1.8032498 -7.69758,-2.1879883 -13.33008,-1.0292969 a 21.283831,21.283831 0 0 1 0.28516,0.1386719 21.283831,21.283831 0 0 1 1.81445,1.1113281 21.283831,21.283831 0 0 1 0.55664,0.4238281 c 3.6741,-0.3045191 6.72911,0.1976545 8.83203,1.4492188 3.01835,1.7963792 4.16198,4.9611002 2.89648,9.0683592 -0.57519,1.866855 -1.65593,3.784085 -3.05273,5.679688 z"
       id="path8419"
       inkscape:connector-curvature="0"
       transform="matrix(0.26458333,0,0,0.26458333,2.3303211,1.1650396)" />
    <path
       style="color:#000000;font-style:normal;font-variant:normal;font-weight:normal;font-stretch:normal;font-size:medium;line-height:normal;font-family:sans-serif;font-variant-ligatures:normal;font-variant-position:normal;font-variant-caps:normal;font-variant-numeric:normal;font-variant-alternates:normal;font-feature-settings:normal;text-indent:0;text-align:start;text-decoration:none;text-decoration-line:none;text-decoration-style:solid;text-decoration-color:#000000;letter-spacing:normal;word-spacing:normal;text-transform:none;writing-mode:lr-tb;direction:ltr;text-orientation:mixed;dominant-baseline:auto;baseline-shift:baseline;text-anchor:start;white-space:normal;shape-padding:0;clip-rule:nonzero;display:inline;overflow:visible;visibility:visible;opacity:1;isolation:auto;mix-blend-mode:normal;color-interpolation:sRGB;color-interpolation-filters:linearRGB;solid-color:#000000;solid-opacity:1;vector-effect:none;fill:#FFFFFF;fill-opacity:1;fill-rule:nonzero;stroke:none;stroke-width:2.09988856;stroke-linecap:butt;stroke-linejoin:miter;stroke-miterlimit:4;stroke-dasharray:none;stroke-dashoffset:0;stroke-opacity:1;color-rendering:auto;image-rendering:auto;shape-rendering:auto;text-rendering:auto;enable-background:accumulate"
       d="m 200.32617,19.855469 c -1.55401,2.148525 -2.79665,4.343517 -3.46289,6.505859 -1.51324,4.911344 -0.0997,8.603724 3.25391,10.59961 2.10565,1.253189 5.04022,1.781874 8.49414,1.638671 11.0366,-0.281424 19.19531,-6.898437 19.19531,-6.898437 l -1.25586,-2.015625 c 0,0 -9.58306,6.984738 -20.12695,6.535156 -1.72525,-0.233343 -3.27677,-0.646427 -4.46485,-1.353515 -3.01834,-1.79638 -4.15221,-4.968914 -2.88671,-9.076172 0.29908,-0.970709 0.73991,-1.957681 1.27148,-2.945313 -0.0452,-0.5197 -0.0712,-1.040886 -0.0781,-1.5625 0.004,-0.476454 0.0244,-0.952634 0.0605,-1.427734 z"
       id="path8415"
       inkscape:connector-curvature="0"
       sodipodi:nodetypes="csccccccccccc"
       transform="matrix(0.26458333,0,0,0.26458333,2.3303211,1.1650396)" />
    <path
       style="fill:#FFFFFF;fill-opacity:1;stroke-width:0.05039386"
       d="m 60.453483,12.40289 a 5.631347,5.631347 0 0 0 0.494987,0.0247 5.631347,5.631347 0 0 0 5.631415,-5.6314204 5.631347,5.631347 0 0 0 -5.631415,-5.63113 5.631347,5.631347 0 0 0 -0.485219,0.0247 5.631347,5.631347 0 0 1 0.0655,0.003 5.631347,5.631347 0 0 1 0.556709,0.0841 5.631347,5.631347 0 0 1 0.545224,0.13954 5.631347,5.631347 0 0 1 0.528862,0.19293 5.631347,5.631347 0 0 1 0.506749,0.24491 5.631347,5.631347 0 0 1 0.480052,0.29401 5.631347,5.631347 0 0 1 0.448186,0.3408 5.631347,5.631347 0 0 1 0.411711,0.38357 5.631347,5.631347 0 0 1 0.371522,0.42292 5.631347,5.631347 0 0 1 0.327599,0.45795 5.631347,5.631347 0 0 1 0.279936,0.48838 5.631347,5.631347 0 0 1 0.229978,0.51363 5.631347,5.631347 0 0 1 0.177435,0.53432 5.631347,5.631347 0 0 1 0.123172,0.54925 5.631347,5.631347 0 0 1 0.06807,0.55872 5.631347,5.631347 0 0 1 0.01405,0.39822 5.631347,5.631347 0 0 1 -0.0281,0.56217 5.631347,5.631347 0 0 1 -0.08412,0.5567 5.631347,5.631347 0 0 1 -0.139248,0.54552 5.631347,5.631347 0 0 1 -0.192944,0.52857 5.631347,5.631347 0 0 1 -0.244906,0.50704 5.631347,5.631347 0 0 1 -0.294291,0.47976 5.631347,5.631347 0 0 1 -0.340517,0.4481904 5.631347,5.631347 0 0 1 -0.383866,0.41172 5.631347,5.631347 0 0 1 -0.422915,0.37152 5.631347,5.631347 0 0 1 -0.457939,0.32759 5.631347,5.631347 0 0 1 -0.488097,0.27994 5.631347,5.631347 0 0 1 -0.513926,0.22998 5.631347,5.631347 0 0 1 -0.534029,0.17743 5.631347,5.631347 0 0 1 -0.549244,0.12346 5.631347,5.631347 0 0 1 -0.470291,0.0571 z"
       id="path7272"
       inkscape:connector-curvature="0" />
    <path
       style="color:#000000;font-style:normal;font-variant:normal;font-weight:normal;font-stretch:normal;font-size:medium;line-height:normal;font-family:sans-serif;font-variant-ligatures:normal;font-variant-position:normal;font-variant-caps:normal;font-variant-numeric:normal;font-variant-alternates:normal;font-feature-settings:normal;text-indent:0;text-align:start;text-decoration:none;text-decoration-line:none;text-decoration-style:solid;text-decoration-color:#000000;letter-spacing:normal;word-spacing:normal;text-transform:none;writing-mode:lr-tb;direction:ltr;text-orientation:mixed;dominant-baseline:auto;baseline-shift:baseline;text-anchor:start;white-space:normal;shape-padding:0;clip-rule:nonzero;display:inline;overflow:visible;visibility:visible;opacity:1;isolation:auto;mix-blend-mode:normal;color-interpolation:sRGB;color-interpolation-filters:linearRGB;solid-color:#000000;solid-opacity:1;vector-effect:none;fill:#FFFFFF;fill-opacity:1;fill-rule:nonzero;stroke:none;stroke-width:0.01036299;stroke-linecap:butt;stroke-linejoin:miter;stroke-miterlimit:4;stroke-dasharray:none;stroke-dashoffset:0;stroke-opacity:1;color-rendering:auto;image-rendering:auto;shape-rendering:auto;text-rendering:auto;enable-background:accumulate"
       d="m 62.236199,8.1790365 c -0.64821,0 -1.173829,0.5256189 -1.173828,1.1738281 0,0.6482094 0.525618,1.1738284 1.173828,1.1738284 0.648209,0 1.173828,-0.525619 1.173828,-1.1738284 0,-0.6482092 -0.525619,-1.1738281 -1.173828,-1.1738281 z"
       id="circle7285"
       inkscape:connector-curvature="0"
       sodipodi:nodetypes="scsss" />
    <g
       aria-label="rbitals"
       transform="matrix(0.26458333,0,0,0.26458333,-4.967658,-28.8232)"
       style="font-style:normal;font-weight:normal;font-size:40px;line-height:1.25;font-family:sans-serif;letter-spacing:0px;word-spacing:0px;fill:#5390b9;fill-opacity:1;stroke:none"
       id="flowRoot7363">
      <path
         d="m 294.82227,131.83501 h -0.625 q -0.44922,-0.15625 -1.44532,-0.23438 -0.99609,-0.0781 -1.66015,-0.0781 -1.50391,0 -2.65625,0.19531 -1.15235,0.19531 -2.48047,0.66406 v 14.6875 h -7.03125 v -21.93359 h 7.03125 v 3.22266 q 2.32422,-1.99219 4.04297,-2.63672 1.71875,-0.66406 3.16406,-0.66406 0.37109,0 0.83984,0.0195 0.46875,0.0195 0.82032,0.0586 z"
         style="font-style:normal;font-variant:normal;font-weight:bold;font-stretch:normal;font-family:sans-serif;-inkscape-font-specification:'sans-serif Bold';fill:#FFFFFF;fill-opacity:1"
         id="path8443"
         inkscape:connector-curvature="0" />
      <path
         d="m 321.73633,135.79985 q 0,5.17578 -2.8711,8.4375 -2.85156,3.26172 -7.1289,3.26172 -1.83594,0 -3.22266,-0.39062 -1.38672,-0.39063 -2.63672,-1.13282 l -0.29297,1.09375 h -6.73828 v -30.39062 h 7.03125 v 10.74219 q 1.6211,-1.28907 3.30078,-2.08985 1.69922,-0.80078 3.90625,-0.80078 4.16016,0 6.40625,3.00781 2.2461,2.98829 2.2461,8.26172 z m -7.2461,0.13672 q 0,-2.92969 -0.99609,-4.51172 -0.99609,-1.58203 -3.55469,-1.58203 -0.99609,0 -2.05078,0.3125 -1.05469,0.29297 -2.01172,0.85938 v 11.01562 q 0.76172,0.27344 1.44532,0.3711 0.68359,0.0976 1.64062,0.0976 2.79297,0 4.16016,-1.64062 1.36718,-1.64063 1.36718,-4.92188 z"
         style="font-style:normal;font-variant:normal;font-weight:bold;font-stretch:normal;font-family:sans-serif;-inkscape-font-specification:'sans-serif Bold';fill:#FFFFFF;fill-opacity:1"
         id="path8445"
         inkscape:connector-curvature="0" />
      <path
         d="m 333.8457,147.06938 h -7.03125 v -21.93359 h 7.03125 z m 0.19532,-25.05859 h -7.42188 v -5.33203 h 7.42188 z"
         style="font-style:normal;font-variant:normal;font-weight:bold;font-stretch:normal;font-family:sans-serif;-inkscape-font-specification:'sans-serif Bold';fill:#FFFFFF;fill-opacity:1"
         id="path8447"
         inkscape:connector-curvature="0" />
      <path
         d="m 354.50977,146.87407 q -1.13282,0.29297 -2.40235,0.44922 -1.26953,0.17578 -3.10547,0.17578 -4.10156,0 -6.11328,-1.66015 -1.99219,-1.66016 -1.99219,-5.6836 v -10.2539 h -2.89062 v -4.76563 h 2.89062 v -6.26953 h 7.03125 v 6.26953 h 6.58204 v 4.76563 h -6.58204 v 7.77343 q 0,1.15235 0.0195,2.01172 0.0195,0.85938 0.3125,1.54297 0.27343,0.68359 0.95703,1.09375 0.70312,0.39063 2.03125,0.39063 0.54687,0 1.42578,-0.23438 0.89844,-0.23437 1.25,-0.42969 h 0.58594 z"
         style="font-style:normal;font-variant:normal;font-weight:bold;font-stretch:normal;font-family:sans-serif;-inkscape-font-specification:'sans-serif Bold';fill:#FFFFFF;fill-opacity:1"
         id="path8449"
         inkscape:connector-curvature="0" />
      <path
         d="m 371.9707,141.34673 v -4.57031 q -1.42578,0.11718 -3.08593,0.33203 -1.66016,0.19531 -2.51954,0.46875 -1.05468,0.33203 -1.62109,0.97656 -0.54687,0.625 -0.54687,1.66016 0,0.68359 0.11718,1.11328 0.11719,0.42968 0.58594,0.82031 0.44922,0.39062 1.07422,0.58594 0.625,0.17578 1.95312,0.17578 1.05469,0 2.12891,-0.42969 1.09375,-0.42969 1.91406,-1.13281 z m 0,3.39844 q -0.5664,0.42968 -1.40625,1.03515 -0.83984,0.60547 -1.58203,0.95703 -1.03515,0.46875 -2.14844,0.6836 -1.11328,0.23437 -2.4414,0.23437 -3.125,0 -5.23438,-1.93359 -2.10937,-1.9336 -2.10937,-4.94141 0,-2.40234 1.07422,-3.92578 1.07422,-1.52344 3.04687,-2.40234 1.95313,-0.87891 4.84375,-1.25 2.89063,-0.3711 5.9961,-0.54688 v -0.11719 q 0,-1.8164 -1.48438,-2.5 -1.48437,-0.70312 -4.375,-0.70312 -1.73828,0 -3.71094,0.625 -1.97265,0.60547 -2.83203,0.9375 h -0.64453 v -5.29297 q 1.11328,-0.29297 3.61328,-0.68359 2.51953,-0.41016 5.03906,-0.41016 5.9961,0 8.65235,1.85547 2.67578,1.83594 2.67578,5.78125 v 14.92187 h -6.97266 z"
         style="font-style:normal;font-variant:normal;font-weight:bold;font-stretch:normal;font-family:sans-serif;-inkscape-font-specification:'sans-serif Bold';fill:#FFFFFF;fill-opacity:1"
         id="path8451"
         inkscape:connector-curvature="0" />
      <path
         d="m 392.43945,147.06938 h -7.03125 v -30.39062 h 7.03125 z"
         style="font-style:normal;font-variant:normal;font-weight:bold;font-stretch:normal;font-family:sans-serif;-inkscape-font-specification:'sans-serif Bold';fill:#FFFFFF;fill-opacity:1"
         id="path8453"
         inkscape:connector-curvature="0" />
      <path
         d="m 418.14258,140.11626 q 0,3.39844 -3.04688,5.48828 -3.04687,2.07031 -8.33984,2.07031 -2.92969,0 -5.3125,-0.54687 -2.38281,-0.54688 -3.82813,-1.21094 v -5.78125 h 0.64454 q 0.52734,0.37109 1.21093,0.82031 0.70313,0.42969 1.97266,0.9375 1.09375,0.44922 2.48047,0.78125 1.38672,0.3125 2.96875,0.3125 2.07031,0 3.0664,-0.44922 0.9961,-0.46875 0.9961,-1.36718 0,-0.80078 -0.58594,-1.15235 -0.58594,-0.37109 -2.22656,-0.70312 -0.78125,-0.17578 -2.12891,-0.3711 -1.32812,-0.21484 -2.42187,-0.50781 -2.98828,-0.78125 -4.4336,-2.42187 -1.44531,-1.66016 -1.44531,-4.1211 0,-3.16406 2.98828,-5.2539 3.00781,-2.10938 8.20313,-2.10938 2.46093,0 4.70703,0.50781 2.26562,0.48829 3.53515,1.05469 v 5.54688 h -0.60546 q -1.5625,-1.07422 -3.57422,-1.73828 -1.99219,-0.6836 -4.04297,-0.6836 -1.69922,0 -2.8711,0.46875 -1.15234,0.46875 -1.15234,1.32813 0,0.78125 0.52734,1.1914 0.52735,0.41016 2.48047,0.82032 1.07422,0.21484 2.30469,0.42968 1.25,0.19532 2.5,0.50782 2.77344,0.72265 4.10156,2.28515 1.32813,1.54297 1.32813,3.86719 z"
         style="font-style:normal;font-variant:normal;font-weight:bold;font-stretch:normal;font-family:sans-serif;-inkscape-font-specification:'sans-serif Bold';fill:#FFFFFF;fill-opacity:1"
         id="path8455"
         inkscape:connector-curvature="0" />
    </g>
    <g
       aria-label="Exodus"
       transform="matrix(0.26458333,0,0,0.26458333,-64.70037,-29.094415)"
       style="font-style:normal;font-weight:normal;font-size:40px;line-height:1.25;font-family:sans-serif;letter-spacing:0px;word-spacing:0px;fill:#5390b9;fill-opacity:1;stroke:none"
       id="flowRoot7371-1">
      <path
         id="path1636"
         style="font-style:normal;font-variant:normal;font-weight:bold;font-stretch:normal;font-family:sans-serif;-inkscape-font-specification:'sans-serif Bold';fill:#FFFFFF;fill-opacity:1"
         d="m 436.11133,140.11626 q 0,3.39844 -3.04688,5.48828 -3.04687,2.07031 -8.33984,2.07031 -2.92969,0 -5.3125,-0.54687 -2.38281,-0.54688 -3.82813,-1.21094 v -5.78125 h 0.64454 q 0.52734,0.37109 1.21093,0.82031 0.70313,0.42969 1.97266,0.9375 1.09375,0.44922 2.48047,0.78125 1.38672,0.3125 2.96875,0.3125 2.07031,0 3.0664,-0.44922 0.9961,-0.46875 0.9961,-1.36718 0,-0.80078 -0.58594,-1.15235 -0.58594,-0.37109 -2.22656,-0.70312 -0.78125,-0.17578 -2.12891,-0.3711 -1.32812,-0.21484 -2.42187,-0.50781 -2.98828,-0.78125 -4.4336,-2.42187 -1.44531,-1.66016 -1.44531,-4.1211 0,-3.16406 2.98828,-5.2539 3.00781,-2.10938 8.20313,-2.10938 2.46093,0 4.70703,0.50781 2.26562,0.48829 3.53515,1.05469 v 5.54688 h -0.60546 q -1.5625,-1.07422 -3.57422,-1.73828 -1.99219,-0.6836 -4.04297,-0.6836 -1.69922,0 -2.8711,0.46875 -1.15234,0.46875 -1.15234,1.32813 0,0.78125 0.52734,1.1914 0.52735,0.41016 2.48047,0.82032 1.07422,0.21484 2.30469,0.42968 1.25,0.19532 2.5,0.50782 2.77344,0.72265 4.10156,2.28515 1.32813,1.54297 1.32813,3.86719 z m -25.72266,6.95312 h -7.03125 v -2.42187 q -1.95312,1.48437 -3.57422,2.26562 -1.62109,0.76172 -3.86718,0.76172 -3.63282,0 -5.60547,-2.08984 -1.95313,-2.08984 -1.95313,-6.17188 v -14.27734 h 7.07031 v 10.87891 q 0,1.66015 0.0977,2.77343 0.11719,1.09375 0.50781,1.81641 0.3711,0.72266 1.11328,1.05469 0.76172,0.33203 2.10938,0.33203 0.89844,0 1.99219,-0.33203 1.09375,-0.33203 2.10937,-0.97656 v -15.54688 h 7.03125 z m -28.49609,0 h -7.03125 v -2.28515 q -1.81641,1.48437 -3.39844,2.1875 -1.58203,0.70312 -3.65234,0.70312 -4.00391,0 -6.40625,-3.08593 -2.40235,-3.08594 -2.40235,-8.32032 0,-2.79297 0.80078,-4.9414 0.82032,-2.16797 2.22657,-3.71094 1.32812,-1.46484 3.22265,-2.26563 1.89453,-0.82031 3.78907,-0.82031 1.97265,0 3.22265,0.42969 1.26953,0.41016 2.59766,1.05469 v -9.33594 h 7.03125 z m -7.03125,-6.05468 v -10.76172 q -0.74219,-0.3125 -1.5625,-0.44922 -0.82031,-0.13672 -1.50391,-0.13672 -2.77344,0 -4.16015,1.73828 -1.38672,1.71875 -1.38672,4.78516 0,3.22265 1.11328,4.6875 1.11328,1.44531 3.57422,1.44531 0.95703,0 2.03125,-0.35156 1.07422,-0.3711 1.89453,-0.95703 z m -19.375,-4.90235 q 0,5.41016 -3.16406,8.53516 -3.14454,3.10547 -8.84766,3.10547 -5.70313,0 -8.86719,-3.10547 -3.14453,-3.125 -3.14453,-8.53516 0,-5.44922 3.16406,-8.55468 3.1836,-3.10547 8.84766,-3.10547 5.74219,0 8.86719,3.125 3.14453,3.125 3.14453,8.53515 z m -8.65235,5.33203 q 0.6836,-0.83984 1.01563,-2.01171 0.35156,-1.19141 0.35156,-3.28125 0,-1.9336 -0.35156,-3.24219 -0.35156,-1.3086 -0.97656,-2.08985 -0.625,-0.80078 -1.50391,-1.13281 -0.87891,-0.33203 -1.89453,-0.33203 -1.01563,0 -1.81641,0.27344 -0.78125,0.27344 -1.5039,1.09375 -0.64453,0.76172 -1.03516,2.08984 -0.37109,1.32813 -0.37109,3.33985 0,1.79687 0.33203,3.125 0.33203,1.30859 0.97656,2.10937 0.625,0.76172 1.48438,1.11328 0.8789,0.35156 1.99218,0.35156 0.95703,0 1.81641,-0.3125 0.87891,-0.33203 1.48437,-1.09375 z m -17.63671,5.625 h -8.20313 l -4.6875,-6.5625 -4.80469,6.5625 h -8.04687 l 8.65234,-10.95703 -8.51562,-10.97656 h 8.20312 l 4.60938,6.44531 4.6289,-6.44531 h 8.06641 l -8.53516,10.80078 z m -28.84766,0 h -21.03516 v -29.08203 h 21.03516 v 5.625 h -13.57422 v 5.01953 h 12.59766 v 5.625 h -12.59766 v 7.1875 h 13.57422 z" />
    </g>
  </g>
</svg>
